<svg width="38" height="32" viewBox="0 0 38 32" fill="none" xmlns="http://www.w3.org/2000/svg">
<path d="M1.36025 13.3731L8.30706 20.4245C9.09516 21.2245 10.3866 21.2196 11.1679 20.413L20.3138 10.9691C20.8423 10.4234 21.5479 10.3675 22.2957 11.1397C23.1215 11.9923 22.681 12.7313 22.4608 13.0155L13.0571 23.0243C12.3159 23.8132 12.3369 25.0487 13.1045 25.812L14.7549 27.453C15.5428 28.2364 16.815 28.2307 17.5932 27.4377C23.619 21.2975 33.5453 11.2904 33.8564 10.9691C34.1867 10.6281 35.078 10.3546 35.8383 11.1397C36.3337 11.6513 36.4989 12.5039 35.8383 13.186L19.1578 30.4098C18.8275 30.7508 18.6623 31.2624 19.1578 31.774C19.5541 32.1833 20.0936 31.9445 20.3138 31.774L36.8292 14.5503C38.811 12.5039 37.8201 10.7986 37.1595 10.1165C34.9574 7.84271 30.0909 2.85182 28.2412 1.07829C26.3915 -0.695244 24.9381 0.111938 24.4427 0.737221L19.4881 5.85318C18.6073 5.00052 16.3832 2.85182 14.5335 1.07829C12.6838 -0.695246 11.0102 0.339314 10.4047 1.07829L1.33741 10.5894C0.592089 11.3712 0.602203 12.6036 1.36025 13.3731Z" fill="#F46D69"/>
</svg>
