<svg width="20" height="20" viewBox="0 0 20 20" fill="none" xmlns="http://www.w3.org/2000/svg">
<path d="M6.66149 2.59397C6.66149 3.50063 7.03607 4.86063 7.22336 5.4273C7.40382 6.12314 7.03607 6.74952 6.66149 7.1273L5.43558 8.46363C7.68304 13.4503 10.5175 14.5437 11.6412 14.5436L12.842 13.3606C13.741 12.454 14.2687 12.7069 14.5276 12.794C15.0895 12.9829 16.439 13.3177 17.337 13.3606C18.4607 13.4144 18.4607 14.494 18.4607 15.0606V17.3273C18.4607 18.234 17.337 18.4606 16.7751 18.4606C15.2263 18.4606 11.6564 18.1323 8.34708 15.6273C2.81402 11.4391 2.16655 6.56063 1.60468 3.7273C1.15519 1.46063 1.87537 1.46063 2.16655 1.46063H4.97589C6.09962 1.46063 6.66149 1.46063 6.66149 2.59397Z" stroke="black" stroke-width="1.5" stroke-linecap="round" stroke-linejoin="round"/>
</svg>
